<?xml version="1.0" encoding="UTF-8" standalone="no"?>
<svg
   xmlns:dc="http://purl.org/dc/elements/1.1/"
   xmlns:cc="http://creativecommons.org/ns#"
   xmlns:rdf="http://www.w3.org/1999/02/22-rdf-syntax-ns#"
   xmlns:svg="http://www.w3.org/2000/svg"
   xmlns="http://www.w3.org/2000/svg"
   width="210mm"
   height="297mm"
   viewBox="0 0 210 297"
   version="1.1"
   id="svg8">
  <defs
     id="defs2" />
  <metadata
     id="metadata5">
    <rdf:RDF>
      <cc:Work
         rdf:about="">
        <dc:format>image/svg+xml</dc:format>
        <dc:type
           rdf:resource="http://purl.org/dc/dcmitype/StillImage" />
        <dc:title></dc:title>
      </cc:Work>
    </rdf:RDF>
  </metadata>
  <g
     id="layer1">
    <path
       style="fill:#ffffff;stroke-width:0.237749"
       d="m 71.920446,169.71948 c -1.176858,-0.10622 -2.942143,-0.36117 -3.922858,-0.56654 -0.980714,-0.20539 -3.013468,-0.62582 -4.51723,-0.93431 -3.792643,-0.77805 -9.212681,-2.54298 -12.600694,-4.10318 -2.758997,-1.27053 -5.363875,-2.56058 -5.705973,-2.82586 -0.196144,-0.1521 -0.837459,-0.53315 -1.425146,-0.8468 -0.587686,-0.31364 -1.176116,-0.6539 -1.307619,-0.75613 -0.131504,-0.10223 -0.988007,-0.67606 -1.90334,-1.27516 -5.725617,-3.74753 -11.767614,-9.41231 -16.219699,-15.20706 -1.305118,-1.6987 -2.91909,-3.97616 -2.91909,-4.11908 0,-0.0863 -0.1625,-0.36588 -0.361113,-0.62131 -0.68586,-0.88207 -2.07087,-3.32638 -3.361587,-5.93265 -0.71234,-1.43837 -1.43619,-2.8827 -1.608557,-3.2096 -0.172368,-0.32691 -0.448876,-1.02232 -0.614465,-1.54537 -0.165588,-0.52305 -0.49406,-1.37895 -0.729938,-1.902 -0.235877,-0.52304 -0.663963,-1.75339 -0.951301,-2.73411 -0.287339,-0.98071 -0.599532,-1.8901 -0.693763,-2.02086 -0.09423,-0.13076 -0.247936,-0.61221 -0.341567,-1.06987 -0.09363,-0.45767 -0.437999,-2.06247 -0.765261,-3.56624 -1.216689,-5.59062 -1.331667,-6.83327 -1.341896,-14.50268 -0.0073,-5.521366 0.08073,-7.818562 0.369278,-9.628833 0.478891,-3.004517 1.752681,-8.882925 2.060708,-9.509965 0.128473,-0.261516 0.456272,-1.277896 0.728443,-2.258601 0.272173,-0.98072 0.637872,-2.050589 0.812667,-2.377495 0.174794,-0.326905 0.450403,-1.022324 0.612464,-1.545371 0.311814,-1.006372 3.701261,-7.98105 4.563734,-9.391081 3.396644,-5.553068 7.399915,-10.574358 11.659643,-14.624656 1.33806,-1.272273 2.809879,-2.591071 3.270705,-2.930659 0.460826,-0.339589 1.426296,-1.103601 2.145486,-1.697806 1.227401,-1.014094 2.452345,-1.869056 4.992728,-3.484719 3.362022,-2.138221 8.947441,-4.920951 12.125196,-6.040933 0.849952,-0.299558 1.652355,-0.622034 1.783116,-0.71661 0.130763,-0.09458 1.093646,-0.404878 2.139741,-0.689556 1.046096,-0.284677 2.32994,-0.66705 2.852988,-0.849712 0.523047,-0.182662 2.181346,-0.55927 3.685108,-0.836907 1.503762,-0.277638 2.948087,-0.59804 3.209611,-0.712008 1.640624,-0.714956 6.433436,-0.820107 37.088835,-0.813698 33.74359,0.0071 31.40204,-0.08016 37.01238,1.378542 3.69257,0.960078 8.25523,2.914697 11.27192,4.828835 3.37335,2.140452 3.34984,2.12283 6.49669,4.870822 4.51398,3.941861 9.0461,10.359658 11.09459,15.710768 0.36519,0.953944 0.73948,1.841427 0.83174,1.97219 0.21336,0.302381 1.35597,4.676758 1.83198,7.013597 0.51372,2.521949 0.50865,11.783018 -0.008,14.26493 -0.61929,2.976031 -1.48275,5.949151 -2.38216,8.20234 -0.8983,2.250419 -2.39763,5.418591 -2.79142,5.898395 -0.12777,0.155694 -0.78698,1.138974 -1.46492,2.185061 -4.8175,7.43378 -12.59875,13.61346 -21.11903,16.77222 -3.14808,1.16709 -7.77027,2.2889 -10.6987,2.59655 -3.04291,0.31968 -56.431721,0.32457 -58.398489,0.005 -1.90538,-0.30927 -5.068921,-1.59712 -6.880053,-2.80081 -2.015915,-1.33981 -4.630804,-4.22349 -5.806793,-6.40369 -1.153034,-2.13764 -2.171939,-6.03471 -2.193023,-8.38775 -0.0312,-3.48214 1.520179,-8.066387 3.687831,-10.897381 1.840081,-2.403181 5.230089,-4.961267 7.65693,-5.777882 0.523048,-0.175994 1.004489,-0.382886 1.069871,-0.459749 0.06538,-0.07688 0.760796,-0.288452 1.545367,-0.470194 1.157319,-0.268098 6.704351,-0.354127 29.396589,-0.455896 26.20185,-0.117507 27.99914,-0.151742 28.42972,-0.541499 0.25279,-0.228832 0.56054,-0.41606 0.68391,-0.41606 0.51681,0 2.0037,-1.517344 2.73492,-2.790934 0.71728,-1.249316 0.78725,-1.547255 0.79634,-3.390539 0.009,-1.875518 -0.0481,-2.120802 -0.79754,-3.410335 -0.90327,-1.554213 -2.6866,-3.103062 -4.02083,-3.49213 -0.61058,-0.178054 -9.71518,-0.232555 -30.00086,-0.179583 -25.967531,0.06781 -29.253086,0.117486 -30.312985,0.458275 -0.65381,0.21022 -2.100348,0.655629 -3.214527,0.989793 -2.249894,0.674783 -6.497184,2.763055 -8.392388,4.126289 -4.570472,3.287584 -8.763426,8.115813 -10.735056,12.361508 -0.355081,0.764647 -0.851279,1.833485 -1.102658,2.37522 -0.251382,0.541727 -0.683869,1.932561 -0.961082,3.090724 -0.277215,1.158176 -0.595121,2.289517 -0.706459,2.514079 -0.111337,0.224571 -0.325875,1.708543 -0.47675,3.297719 -0.278692,2.935495 -0.0061,8.230415 0.473434,9.194315 0.113161,0.22748 0.43256,1.3612 0.709775,2.51938 0.277213,1.15817 0.7097,2.54901 0.961082,3.09074 0.251379,0.54172 0.747577,1.61057 1.102658,2.3752 1.48836,3.20503 4.659108,7.28176 7.773857,9.99507 4.544314,3.95863 9.345973,6.26416 15.994608,7.67985 1.418308,0.30201 6.055941,0.35998 31.382851,0.39232 29.84405,0.0381 32.59453,-0.0244 35.18685,-0.79988 0.39228,-0.11735 2.03709,-0.4924 3.65512,-0.83346 1.61803,-0.34105 3.11585,-0.71635 3.32849,-0.834 0.21263,-0.11765 1.08202,-0.4221 1.93197,-0.67656 3.34985,-1.00291 8.97377,-3.67233 12.24407,-5.81173 5.28816,-3.45945 9.98033,-7.47602 13.13512,-11.24386 1.46862,-1.754 3.98463,-5.03336 4.4583,-5.81093 0.26153,-0.4293 0.81424,-1.32376 1.22826,-1.98766 1.12976,-1.81166 2.80498,-4.9023 3.1672,-5.84322 0.17619,-0.457663 0.41292,-0.954311 0.52607,-1.10366 0.11315,-0.149348 0.50013,-1.112228 0.85994,-2.139742 0.35982,-1.027505 0.73265,-1.994774 0.82851,-2.149489 0.1524,-0.245967 1.22621,-4.047339 1.84094,-6.517084 1.23737,-4.971222 1.29649,-16.789547 0.11289,-22.563612 -0.52522,-2.562216 -1.74499,-7.149919 -1.98018,-7.447783 -0.12121,-0.153481 -0.40948,-0.867486 -0.64061,-1.586677 -0.53563,-1.666618 -2.70617,-6.279387 -3.97148,-8.440086 -2.3316,-3.98154 -5.81614,-8.553104 -8.87177,-11.639366 -1.08463,-1.095514 -4.80162,-4.425314 -5.50678,-4.933158 -4.52906,-3.261745 -6.40028,-4.452492 -9.34703,-5.947941 -3.97114,-2.015321 -5.27498,-2.584595 -7.52958,-3.287502 -0.89307,-0.278428 -1.94471,-0.646983 -2.33699,-0.819011 -0.70565,-0.309447 -3.88856,-1.054203 -7.15716,-1.674673 -3.35797,-0.637436 -8.56199,-0.820675 -23.33415,-0.821625 l -15.03777,-4.66e-4 V 13.871933 8.4996815 l 17.53398,0.1242375 c 13.77572,0.097609 18.06906,0.2005915 20.03034,0.4804638 3.01887,0.4307853 9.48892,1.7421022 9.98849,2.0244142 0.1978,0.111785 1.37466,0.495061 2.61524,0.851726 1.24057,0.356665 2.36256,0.731908 2.49333,0.833876 0.13077,0.101969 0.78325,0.363256 1.44997,0.580641 1.4562,0.474795 5.54439,2.297592 6.3778,2.843667 0.32758,0.214633 0.67019,0.39024 0.76137,0.39024 0.30689,0 5.90468,3.367425 6.63297,3.990154 0.13417,0.114716 0.56211,0.41292 0.951,0.66268 4.51614,2.900442 12.25751,10.481823 15.34312,15.026018 0.37927,0.55856 0.80241,1.146988 0.94031,1.30762 0.47616,0.554691 3.10104,4.784383 3.9436,6.354655 0.31574,0.588428 0.67709,1.230351 0.80301,1.426494 0.88471,1.378047 3.56962,7.875062 4.06126,9.827552 0.15358,0.609894 0.36137,1.108898 0.46176,1.108898 0.1004,0 0.23423,0.294214 0.29741,0.65381 0.28587,1.627232 1.18056,5.454643 1.37551,5.884289 1.00305,2.210685 1.51993,15.929325 0.83778,22.235485 -0.21889,2.023541 -0.49267,4.0536 -0.60839,4.511273 -0.11571,0.457664 -0.47854,1.970367 -0.80628,3.36155 -0.65506,2.780572 -2.08155,7.180325 -3.22677,9.952395 -0.91886,2.22414 -3.27979,6.97112 -3.98981,8.02206 -0.29273,0.43327 -0.69714,1.10665 -0.89868,1.4964 -0.34631,0.6697 -3.453,5.16726 -4.09949,5.93483 -0.16539,0.19634 -0.96173,1.15068 -1.76965,2.12071 -3.13822,3.7679 -7.82914,8.26484 -10.74125,10.29707 -0.40748,0.28436 -0.79437,0.57887 -0.85975,0.65449 -0.21939,0.25372 -5.09836,3.44143 -6.30035,4.11637 -0.65381,0.36713 -2.52609,1.30981 -4.1606,2.09487 -1.63453,0.78505 -3.23934,1.56792 -3.56624,1.73972 -0.3269,0.17181 -1.1828,0.49967 -1.90199,0.72857 -0.71919,0.22892 -1.62858,0.56085 -2.02086,0.73764 -1.35111,0.6089 -6.66365,2.04564 -9.74771,2.63619 -6.54794,1.25384 -5.73383,1.22734 -38.27758,1.24605 -29.196191,0.0168 -33.790657,-0.0729 -35.186837,-0.68664 -0.261524,-0.11496 -1.2779,-0.39258 -2.258614,-0.61691 -1.735456,-0.397 -6.894278,-2.18748 -7.132469,-2.4755 -0.06538,-0.0791 -0.808593,-0.44917 -1.651585,-0.82249 -0.842991,-0.37331 -1.645394,-0.77069 -1.783117,-0.88306 -0.137723,-0.11236 -1.107292,-0.76559 -2.154593,-1.4516 -1.047303,-0.68601 -2.491627,-1.68631 -3.20961,-2.22286 -5.638095,-4.21341 -11.357095,-11.94697 -13.672097,-18.48817 -0.330112,-0.93276 -0.698183,-1.90991 -0.81793,-2.17142 -0.235079,-0.51341 -0.834737,-2.97899 -1.098641,-4.51723 -0.08974,-0.52305 -0.248927,-1.11787 -0.353763,-1.32182 -0.104835,-0.20395 -0.316134,-1.92631 -0.469556,-3.82746 -0.283387,-3.51164 -4.76e-4,-9.714064 0.484758,-10.631305 0.112437,-0.212495 0.378991,-1.327761 0.592342,-2.478362 1.261876,-6.805323 5.727634,-14.839923 11.398848,-20.508327 4.157882,-4.155814 9.858113,-7.943228 14.518061,-9.64626 0.784572,-0.286732 1.53461,-0.60273 1.666753,-0.702221 0.436099,-0.328336 5.901357,-1.687162 8.080954,-2.009165 2.874387,-0.424648 59.314006,-0.496609 61.265386,-0.07811 0.69145,0.148289 2.06453,0.610112 3.05128,1.026272 4.97447,2.097971 8.49505,5.945042 10.23659,11.18593 0.72305,2.175911 0.79066,2.629462 0.79749,5.349351 0.007,2.754038 -0.0511,3.146122 -0.79206,5.349347 -0.86839,2.58223 -1.44278,3.642944 -3.17673,5.86644 -1.80231,2.311149 -5.05405,4.688101 -7.4275,5.429344 -0.52305,0.163355 -1.05798,0.374599 -1.18874,0.469432 -0.13077,0.09483 -0.50522,0.263619 -0.83212,0.375089 -0.3269,0.11146 -13.32583,0.260654 -28.8865,0.331525 l -28.292117,0.128854 -1.168627,0.575181 c -2.506594,1.233698 -4.228684,3.895512 -4.242318,6.557305 -0.008,1.56358 0.796031,3.72282 1.782282,4.78628 0.883214,0.95233 2.514312,1.97168 3.580148,2.23736 0.678226,0.16907 10.055531,0.22261 29.172752,0.16654 24.72096,-0.0725 28.34805,-0.12858 29.59975,-0.45774 3.85483,-1.01369 5.30758,-1.46116 6.40826,-1.97382 0.65983,-0.30734 1.57415,-0.72595 2.03182,-0.93025 0.90122,-0.4023 0.97529,-0.44583 3.44736,-2.02563 2.18681,-1.39751 3.11624,-2.15264 5.30872,-4.313163 2.01754,-1.988128 2.57478,-2.618676 3.23888,-3.664957 0.24686,-0.388933 0.63076,-0.902409 0.85312,-1.141078 0.22234,-0.23866 0.59485,-0.856588 0.82779,-1.373164 0.23295,-0.516563 0.50129,-0.939213 0.59633,-0.939213 0.095,0 0.31171,-0.347709 0.48149,-0.772689 0.16978,-0.424971 0.6503,-1.521597 1.06784,-2.436925 0.41754,-0.915337 0.89405,-2.252672 1.05891,-2.97187 0.16486,-0.719189 0.38529,-1.416592 0.48983,-1.549793 0.79666,-1.015057 1.12414,-10.174544 0.4886,-13.666129 -0.17851,-0.980716 -0.3915,-1.836612 -0.47331,-1.901997 -0.0818,-0.06537 -0.33753,-0.867784 -0.56823,-1.783114 -0.50296,-1.995485 -2.31393,-5.750706 -3.95141,-8.193618 -2.44921,-3.653909 -7.07622,-8.066154 -10.25068,-9.77491 -0.58844,-0.316741 -1.12712,-0.651983 -1.19708,-0.744981 -0.07,-0.093 -0.5514,-0.344818 -1.06987,-0.559594 -0.51846,-0.214779 -1.4776,-0.640397 -2.1314,-0.945818 -0.65381,-0.305422 -1.88417,-0.732403 -2.73412,-0.948842 -0.84995,-0.216442 -1.74226,-0.49733 -1.9829,-0.624198 -0.24065,-0.126867 -1.65169,-0.388872 -3.13567,-0.582233 -2.28914,-0.298271 -7.19621,-0.338348 -32.37182,-0.264379 -29.254892,0.08595 -32.255774,0.163051 -33.953159,0.872334 -0.261523,0.109284 -1.652355,0.4326 -3.090736,0.718485 -1.438381,0.285883 -2.936199,0.665927 -3.328485,0.844538 -0.392286,0.178614 -1.33954,0.502003 -2.10501,0.718642 -3.060908,0.866278 -11.910727,5.329801 -14.1654,7.144502 -0.204609,0.164684 -1.120924,0.860483 -2.036258,1.546222 -1.766704,1.32356 -4.328243,3.516407 -5.943314,5.087873 -1.255298,1.221404 -5.402107,6.028373 -5.971994,6.922718 -0.24016,0.37689 -0.497865,0.738745 -0.572678,0.804124 -0.150274,0.131329 -2.004825,2.971347 -2.794527,4.27948 -0.276288,0.457669 -1.103569,2.062474 -1.838405,3.566237 -0.734835,1.503762 -1.475402,3.001581 -1.645704,3.328483 -0.170302,0.326911 -0.543467,1.343282 -0.829255,2.258619 -0.285788,0.915328 -0.62042,1.849378 -0.743625,2.075653 -0.329558,0.605272 -1.834364,6.894653 -2.176927,9.098535 -0.179858,1.157125 -0.296505,4.369377 -0.297851,8.20235 -0.0022,6.20135 0.189699,8.53187 0.929792,11.29307 0.175244,0.65382 0.560278,2.23187 0.855634,3.5068 0.295357,1.27492 0.607248,2.31806 0.693094,2.31806 0.08585,0 0.298688,0.56167 0.472985,1.24817 0.343993,1.35489 1.696693,4.59763 2.96285,7.10265 0.981942,1.94273 4.062008,7.09213 4.390708,7.3406 0.08649,0.0654 0.353749,0.42724 0.593909,0.80413 0.583714,0.91604 4.756686,5.76499 5.83065,6.77516 2.221942,2.08993 4.569313,4.10638 6.084658,5.22686 0.915334,0.67682 1.774011,1.31724 1.908171,1.42318 0.134161,0.10593 0.562109,0.38989 0.950996,0.631 0.388888,0.24114 1.260133,0.79424 1.936103,1.22912 0.675968,0.4349 1.336996,0.79073 1.468949,0.79073 0.131953,0 0.387961,0.14804 0.568909,0.32899 0.311377,0.31138 5.219875,2.76173 5.532239,2.76173 0.08081,0 0.701748,0.24961 1.379869,0.55467 0.678119,0.30507 1.928362,0.74452 2.778316,0.97656 0.849951,0.23204 1.652353,0.50534 1.783116,0.60732 0.130762,0.10199 1.30762,0.41577 2.615239,0.69729 1.307619,0.28155 2.701032,0.61274 3.096471,0.73599 2.178457,0.67902 4.40752,0.76843 21.688855,0.87002 l 17.890605,0.10517 v 5.33446 5.33446 l -16.820734,-0.0321 c -9.251406,-0.0177 -17.783621,-0.11903 -18.960478,-0.22525 z"
       id="path90" />
  </g>
</svg>
