<svg width="1350" height="1099" viewBox="0 0 1350 1099" fill="none" xmlns="http://www.w3.org/2000/svg">
<path d="M214.345 924.784C193.783 910.06 188.074 900.006 171.245 882.546L120.387 938.576C137.908 960.112 149.43 970.503 171.245 987.71L214.345 924.784Z" fill="white"/>
<path d="M1036.68 32.6189C1013.51 23.8178 999.573 19.4038 972.03 12.793L958.238 85.2006C978.943 89.3909 990.921 93.3551 1012.54 101.579L1036.68 32.6189Z" fill="white"/>
<path d="M947.899 82.6138C926.282 78.3009 914.306 76.4575 893.593 75.7179L895.317 2.44824C921.397 3.89866 936.131 6.16886 962.552 11.0682L947.899 82.6138Z" fill="white"/>
<path d="M883.246 75.7173C857.052 74.4027 841.158 74.0379 810.838 73.9933V1.58569C842.793 1.60205 860.527 1.65634 885.832 3.30969L883.246 75.7173Z" fill="white"/>
<path d="M1113.4 772.211C1097.37 783.759 1087.85 790.214 1067.72 801.519L1098.75 869.617C1125.82 856.541 1138 846.874 1159.09 832.551L1113.4 772.211Z" fill="white"/>
<path d="M1203.91 680.839C1191.79 697.072 1183.2 705.944 1166.85 724.801L1227.18 773.073C1243.52 755.128 1252.41 744.216 1267.7 722.215L1203.91 680.839Z" fill="white"/>
<path d="M555.694 1098.04V1025.64H617.758V1098.04H555.694Z" fill="white"/>
<path d="M543.621 1024.77H479.833V1097.18H543.621V1024.77Z" fill="white"/>
<path d="M470.358 1023.91C446.415 1024.24 429.808 1022.36 407.432 1017.02C405.076 1045.29 403.754 1062.01 401.398 1090.29C425.079 1095.35 442.665 1098.5 470.358 1097.18V1023.91Z" fill="white"/>
<path d="M397.947 1015.29C397.947 1015.29 361.151 1005.45 341.056 998.916L327.264 1072.19C358.788 1083.75 374.099 1087.29 391.913 1087.7L397.947 1015.29Z" fill="white"/>
<path d="M332.44 995.467C312.097 987.62 300.642 983.127 278.134 970.469L250.55 1039.43C276.184 1053.37 290.725 1059.26 316.924 1067.87L332.44 995.467Z" fill="white"/>
<path d="M222.954 931.68C240.34 946.08 250.935 952.898 270.364 964.436L242.78 1035.12C217.795 1021.25 204.027 1012.01 179.854 993.743L222.954 931.68Z" fill="white"/>
<path d="M113.49 930.818L164.348 873.926L145.384 849.79L128.144 820.482L68.6665 870.478L86.7684 901.51L113.49 930.818Z" fill="white"/>
<path d="M98.8311 756.695C106.313 779.798 111.466 791.792 122.105 811.863L64.3512 861.848C47.2994 835.31 39.7078 819.901 30.7334 791.164L98.8311 756.695Z" fill="white"/>
<path d="M95.3844 748.937C86.8423 721.298 83.1966 706.177 79.8685 679.978L5.73682 702.389C9.30854 732.261 13.3909 749.832 25.5627 783.417L95.3844 748.937Z" fill="white"/>
<path d="M79.8647 610.154C77.8784 633.833 78.4987 646.715 79.8647 669.631L4.87111 692.043C0.417801 663.121 -0.620057 646.163 2.28512 613.602L79.8647 610.154Z" fill="white"/>
<path d="M91.9379 535.162C87.6279 548.092 79.87 575.676 79.87 598.95L3.15234 603.26C4.09499 574.658 4.43709 559.595 13.4963 531.714L91.9379 535.162Z" fill="white"/>
<path d="M117.799 468.788C106.989 489.664 102.095 502.004 94.5256 524.818L16.084 521.37C23.7773 491.563 29.5793 475.07 44.5299 446.376L117.799 468.788Z" fill="white"/>
<path d="M154.862 409.309C142.275 426.969 135.57 438.441 123.83 460.167L48.8364 436.893C62.2086 408.407 70.8394 393.467 89.3502 369.657L154.862 409.309Z" fill="white"/>
<path d="M205.724 355.004C186.805 371.879 177.361 382.223 161.763 401.551L96.251 361.038C113.576 337.785 124.479 325.3 147.971 305.008L205.724 355.004Z" fill="white"/>
<path d="M266.915 309.317C246.02 322.345 233.669 331.093 213.471 348.107L155.718 297.249C176.896 278.066 190.723 267.289 216.057 251.564L266.915 309.317Z" fill="white"/>
<path d="M332.44 275.702C310.859 284.181 298.277 290.672 275.548 303.285L224.69 246.394C251.785 230.08 267.717 221.944 298.822 209.328L332.44 275.702Z" fill="white"/>
<path d="M400.531 255.011C376.058 259.163 363.604 263.521 341.916 272.251L309.16 205.877C335.804 194.272 351.009 189.816 378.119 186.051L400.531 255.011Z" fill="white"/>
<path d="M473.797 246.394C448.48 246.243 434.734 247.908 410.871 253.29L385.873 182.606C417.126 175.415 434.838 173.752 466.901 173.986L473.797 246.394Z" fill="white"/>
<path d="M547.074 246.391H482.424L477.252 173.984L545.35 173.122L547.074 246.391Z" fill="#DADDE2"/>
<path d="M555.696 245.529L554.834 173.122H623.794V245.529H555.696Z" fill="#ABABAB"/>
<path d="M699.65 245.533H633.276V172.263H699.65V245.533Z" fill="#727272"/>
<path d="M710.842 246.391V173.122H777.215V246.391H710.842Z" fill="#918F8F"/>
<path d="M787.569 246.391V173.122H853.943V246.391H787.569Z" fill="#D9D9D9"/>
<path d="M787.569 246.391V173.122H853.943V246.391H787.569Z" fill="#DADDE2"/>
<path d="M670.339 417.067V343.797H736.713V417.067H670.339Z" fill="#ABABAB"/>
<path d="M615.171 586.017V512.748H681.545V586.017H615.171Z" fill="#ABABAB"/>
<path d="M572.067 759.281V683.426H637.579V759.281H572.067Z" fill="#ABABAB"/>
<path d="M723.783 759.281V683.426H789.295V759.281H723.783Z" fill="#ABABAB"/>
<path d="M647.924 759.281V683.426H713.436V759.281H647.924Z" fill="#918F8F"/>
<path d="M558.275 929.956V854.1H623.787V929.956H558.275Z" fill="#ABABAB"/>
<path d="M480.699 928.233V852.377H546.21V928.233H480.699Z" fill="#918F8F"/>
<path d="M709.988 929.956V854.1H775.5V929.956H709.988Z" fill="#727272"/>
<path d="M787.569 929.956V854.1H853.081V929.956H787.569Z" fill="#ABABAB"/>
<path d="M634.13 929.956V854.1H699.642V929.956H634.13Z" fill="white"/>
<path d="M763.429 586.017V512.748H829.803V586.017H763.429Z" fill="#727272"/>
<path d="M689.297 586.017V512.748H755.671V586.017H689.297Z" fill="#918F8F"/>
<path d="M518.616 417.067V343.797H584.99V417.067H518.616Z" fill="#DADDE2"/>
<path d="M594.48 417.067V343.797H660.854V417.067H594.48Z" fill="#727272"/>
<path d="M656.538 73.9938V0.724121H722.911V73.9938H656.538Z" fill="white"/>
<path d="M734.125 73.9938V0.724121H800.499V73.9938H734.125Z" fill="white"/>
<path d="M541.04 586.017V512.748H607.413V586.017H541.04Z" fill="#727272"/>
<path d="M496.213 755.833V683.426C521.038 684.854 535.28 684.983 563.449 683.426V755.833C537.825 757.375 522.982 757.075 496.213 755.833Z" fill="#DADDE2"/>
<path d="M744.47 417.067V343.797H810.843V417.067H744.47Z" fill="#727272"/>
<path d="M925.491 254.149C902.084 247.567 888.832 245.285 865.151 245.529V173.121C894.978 171.456 911.729 173.757 941.007 182.603L925.491 254.149Z" fill="#ABABAB"/>
<path d="M936.687 256.738L949.616 185.192C964.27 188.64 994.416 197.65 1018.58 213.638L993.578 285.184C971.166 269.668 960.781 265.227 936.687 256.738Z" fill="#727272"/>
<path d="M1042.72 330.007C1026.63 311.699 1017.36 302.417 999.619 289.493L1027.2 221.395C1053.92 234.982 1065.59 245.768 1088.4 268.805L1042.72 330.007Z" fill="white"/>
<path d="M1077.2 389.484C1069.23 369.894 1063.26 358.647 1048.75 337.764L1095.3 276.562C1117.88 303.058 1127.92 318.11 1139.26 345.522L1077.2 389.484Z" fill="#ABABAB"/>
<path d="M1165.99 434.308C1161.88 402.982 1157.08 385.248 1143.58 353.281L1080.65 398.966C1087.95 420.854 1089.96 433.121 1091 454.996L1165.99 434.308Z" fill="#DADDE2"/>
<path d="M1081.5 526.543C1088.78 503.587 1090.44 490.152 1090.12 465.341L1166.84 444.654C1167.45 481.236 1166.29 499.768 1160.81 529.991L1081.5 526.543Z" fill="#727272"/>
<path d="M1156.5 541.194L1078.92 536.884C1070.37 558.314 1063.75 569.99 1049.62 590.328L1121.16 617.049C1137.52 591.14 1145.52 574.854 1156.5 541.194Z" fill="#ABABAB"/>
<path d="M881.528 507.577C874.612 511.535 863.137 512.269 838.428 512.749L839.29 585.157C868.821 586.104 884.423 585.2 908.25 577.399L881.528 507.577Z" fill="#ABABAB"/>
<path d="M1057.38 686.011L1004.8 636.015C1021.3 621.296 1029.42 613.208 1042.72 598.949L1115.13 625.671C1094.66 654.696 1081.83 667.356 1057.38 686.011Z" fill="white"/>
<path d="M1049.62 693.767L995.31 642.047C974.607 655.291 962.383 662.013 938.418 671.355L978.932 732.557C1006.93 720.81 1022.35 711.744 1049.62 693.767Z" fill="#ABABAB"/>
<path d="M969.454 736.005L927.216 673.941C907.074 680.769 894.726 683.131 870.324 683.423L896.184 754.107C925.026 750.053 941.068 746.071 969.454 736.005Z" fill="#727272"/>
<path d="M859.976 682.562C836.354 683.374 823.308 683.374 799.637 682.562V757.555C838.74 759.333 858.672 759.455 884.974 755.831L859.976 682.562Z" fill="#DADDE2"/>
<path d="M487.591 684.285C472.663 680.681 465.041 677.063 453.973 667.045L402.253 718.765C427.281 744.45 453.776 756.673 487.591 755.831V684.285Z" fill="white"/>
<path d="M442.76 624.809C441.571 640.31 442.979 647.612 448.794 658.426L395.351 711.008C370.68 682.137 360.109 650.473 370.353 609.293L442.76 624.809Z" fill="#727272"/>
<path d="M466.906 593.777C455.595 601.708 452.794 606.591 447.942 615.327L372.948 599.811C385.969 564.728 399.402 549.215 434.15 528.266L466.906 593.777Z" fill="#ABABAB"/>
<path d="M532.419 586.879C502.597 586.259 485.49 585.829 475.527 589.465L442.771 523.953C462.423 513.589 486.189 513.178 533.281 514.471L532.419 586.879Z" fill="#DADDE2"/>
<path d="M870.324 417.93C854.462 417.001 843.231 416.639 820.329 416.206L821.191 343.798C852.107 343.297 865.134 343.499 881.53 344.66L870.324 417.93Z" fill="white"/>
<path d="M895.313 431.724C890.192 426.629 887.181 423.952 880.659 420.518L891.865 347.248C933.678 361.739 947.621 375.22 966.859 402.416L895.313 431.724Z" fill="#918F8F"/>
<path d="M909.109 473.098C909.821 455.947 908.133 448.261 901.351 438.618L972.034 411.034C987.529 445.644 988.886 464.892 979.792 498.958L909.109 473.098Z" fill="#ABABAB"/>
<path d="M916.864 573.09L891.004 501.544C897.526 496.367 900.845 492.521 905.658 482.58L977.203 508.44C960.706 541.363 946.853 554.754 916.864 573.09Z" fill="#DADDE2"/>
<path d="M509.139 417.929C490.283 417.233 477.719 417.154 449.661 417.929L443.627 346.384C448.285 345.16 466.308 344.386 509.139 342.936V417.929Z" fill="white"/>
<path d="M439.318 420.516C412.016 428.637 400.496 433.172 385.012 441.204L363.462 369.659C390.118 358.082 405.41 353.303 433.284 348.971L439.318 420.516Z" fill="#ABABAB"/>
<path d="M375.537 445.513C357.127 455.558 348.261 463.023 333.299 477.407L291.923 414.482C312.285 397.893 325.819 388.952 353.987 373.968L375.537 445.513Z" fill="#727272"/>
<path d="M291.055 526.541C301.488 510.234 308.332 501.017 324.673 484.303L283.297 422.24C260.897 441.729 250.43 454.209 234.164 478.269L291.055 526.541Z" fill="#ABABAB"/>
<path d="M268.648 579.123C273.32 560.652 277.115 551.269 285.887 536.885L227.272 486.889C211.694 513.212 204.412 528.921 195.378 558.435L268.648 579.123Z" fill="#DADDE2"/>
<path d="M260.882 647.222C260.285 624.664 260.651 612.025 265.192 589.468L192.785 567.056C185.702 599.398 184.161 617.908 184.165 651.532L260.882 647.222Z" fill="#ABABAB"/>
<path d="M274.68 711.871C266.617 689.787 263.952 678.014 260.888 657.565L185.033 661.013C189.178 690.869 193.341 706.827 203.135 734.283L274.68 711.871Z" fill="#727272"/>
<path d="M310.883 771.349C297.756 755.719 290.732 745.01 278.989 721.353L206.581 743.765C219.064 772.889 228.772 787.745 248.819 812.724L310.883 771.349Z" fill="#ABABAB"/>
<path d="M358.293 813.587C340.343 801.593 331.956 793.994 318.641 779.107L254.854 820.483C274.797 843.346 286.891 853.478 309.159 869.616L358.293 813.587Z" fill="white"/>
<path d="M419.496 843.756C398.699 836.358 387.09 831.508 366.915 819.621L317.781 874.788C342.29 890.707 356.404 898.282 382.43 907.544L419.496 843.756Z" fill="#727272"/>
<path d="M862.561 928.233L861.699 854.18C885.893 854.245 899.207 853.096 922.901 850.653L930.659 923.825C914.184 927.199 898.622 928.044 862.561 928.233Z" fill="#DADDE2"/>
<path d="M940.996 920.474L932.376 848.066C956.755 844.464 969.916 841.124 992.716 833.412L1013.4 904.096C985.607 913.264 969.555 917.027 940.996 920.474Z" fill="white"/>
<path d="M1023.76 901.51L1002.21 829.964C1023.25 822.7 1035.46 817.681 1058.24 805.828L1089.27 873.926C1064.08 886.929 1049.86 893.485 1023.76 901.51Z" fill="white"/>
<path d="M1159.95 732.558C1144.55 747.26 1136.17 754.365 1122.02 765.314L1167.71 827.378C1188.06 811.255 1199.57 800.941 1219.43 780.83L1159.95 732.558Z" fill="white"/>
<path d="M1242.71 614.465C1231.41 638.705 1223.72 651.315 1209.95 671.357L1274.6 713.595C1290.04 690.907 1298.05 677.288 1309.94 650.669L1242.71 614.465Z" fill="white"/>
<path d="M1264.25 551.539C1258.69 573.244 1254.4 585.036 1246.14 605.844L1314.24 641.186C1324.62 615.234 1330.34 600.47 1338.38 568.778L1264.25 551.539Z" fill="white"/>
<path d="M1266.83 541.195C1270.29 520.987 1271.77 509.212 1272.87 486.89L1348.72 484.304C1348 516.348 1345.9 532.379 1340.1 557.573L1266.83 541.195Z" fill="white"/>
<path d="M1270.28 413.619C1273.6 438.207 1273.92 451.975 1272.87 476.545L1348.72 473.959C1349.5 448.464 1349.3 433.85 1346.14 406.723L1270.28 413.619Z" fill="white"/>
<path d="M1254.77 344.66C1262.58 368.717 1265.99 381.797 1269.43 404.138L1346.14 397.242C1342.22 371.469 1339.08 356.968 1330.63 330.868L1254.77 344.66Z" fill="white"/>
<path d="M1250.45 335.179C1243.09 315.746 1238.43 304.503 1225.45 280.873L1295.27 249.841C1310.67 277.675 1317.07 293.124 1326.31 320.525L1250.45 335.179Z" fill="white"/>
<path d="M1220.29 272.253C1209.4 254.875 1202.59 244.807 1187.53 225.705L1246.82 179.635C1266.7 202.07 1275.88 215.593 1289.92 240.837L1220.29 272.253Z" fill="white"/>
<path d="M1137.54 175.709C1156.96 191.177 1166.18 200.857 1181.5 218.808L1241.84 172.261C1223.27 150.392 1211.82 138.957 1189.26 120.541L1137.54 175.709Z" fill="white"/>
<path d="M1130.65 169.676C1111.8 155.034 1101.19 147.275 1082.38 136.058L1120.3 70.5464C1145.6 86.0877 1159.24 95.5466 1182.37 113.646L1130.65 169.676Z" fill="white"/>
<path d="M1022.04 105.889C1041.87 113.169 1053.22 119.111 1073.76 130.886L1110.82 66.2367C1086 52.1872 1071.95 45.2667 1046.17 36.0669L1022.04 105.889Z" fill="white"/>
<path d="M470.346 854.099C454.622 852.921 446.267 851.092 429.832 846.341L391.904 910.128C422.605 921.373 439.638 924.959 470.346 925.644V854.099Z" fill="#DADDE2"/>
</svg>
